<?xml version="1.0" standalone="no"?>
<!DOCTYPE svg PUBLIC "-//W3C//DTD SVG 20010904//EN"
 "http://www.w3.org/TR/2001/REC-SVG-20010904/DTD/svg10.dtd">
<svg version="1.0" xmlns="http://www.w3.org/2000/svg"
 width="500.000000pt" height="500.000000pt" viewBox="0 0 500.000000 500.000000"
 preserveAspectRatio="xMidYMid meet">

<g transform="translate(0.000000,500.000000) scale(0.100000,-0.100000)"
fill="#000000" stroke="none">
<path d="M1818 3218 c-554 -139 -638 -163 -638 -179 0 -13 11 -21 38 -28 281
-74 573 -142 597 -138 17 3 82 16 145 30 177 39 327 51 550 43 107 -3 215 -10
240 -15 32 -7 14 -8 -65 -4 -148 7 -392 -12 -545 -43 -125 -25 -173 -38 -282
-76 l-58 -21 0 -86 c0 -49 5 -92 11 -98 8 -8 35 -4 96 13 198 54 319 68 593
68 273 0 387 -13 593 -68 59 -15 90 -19 97 -12 6 6 10 62 10 136 l0 125 113
29 c61 16 120 31 130 34 16 4 17 -12 17 -232 0 -151 -4 -236 -10 -236 -5 0
-10 -25 -10 -55 0 -49 2 -55 24 -61 14 -3 34 -3 45 1 18 5 21 14 21 61 0 30
-5 54 -10 54 -7 0 -9 83 -8 242 l3 242 125 31 c69 17 137 35 153 38 17 5 27
14 27 26 0 16 -81 39 -645 180 -355 88 -662 161 -682 160 -21 0 -325 -73 -675
-161z"/>
<path d="M1215 2246 c-57 -25 -80 -61 -80 -123 0 -51 3 -58 36 -87 20 -17 61
-40 90 -50 93 -34 122 -81 76 -124 -36 -34 -91 -30 -132 11 -32 32 -32 32 -61
14 -32 -19 -32 -31 -1 -65 55 -59 163 -75 230 -33 70 43 83 154 25 208 -13 12
-58 37 -100 56 -63 29 -79 41 -84 63 -4 15 -2 34 3 43 14 23 86 26 118 5 25
-16 27 -16 51 7 l25 24 -25 22 c-27 23 -85 43 -121 43 -11 -1 -33 -7 -50 -14z"/>
<path d="M1680 2251 c-183 -60 -245 -266 -122 -403 96 -106 268 -108 360 -4
17 20 32 40 32 44 0 4 -13 14 -28 23 -28 16 -29 15 -69 -22 -70 -65 -166 -63
-231 4 -57 59 -67 126 -29 197 53 101 193 119 272 34 23 -24 27 -26 55 -14 16
7 30 18 30 24 0 17 -69 81 -109 101 -39 19 -125 28 -161 16z"/>
<path d="M2688 2247 c-108 -34 -173 -123 -173 -237 0 -140 105 -244 245 -243
146 2 248 115 238 263 -8 106 -70 185 -170 215 -60 17 -89 18 -140 2z m135
-81 c70 -29 114 -116 97 -190 -26 -115 -154 -168 -254 -106 -108 66 -97 239
18 291 49 22 95 24 139 5z"/>
<path d="M3260 2251 c-140 -46 -214 -174 -175 -306 53 -185 288 -240 417 -97
34 37 68 119 68 162 0 9 -7 40 -16 69 -18 61 -70 123 -127 153 -44 22 -128 32
-167 19z m140 -94 c50 -26 90 -90 90 -144 0 -111 -118 -198 -222 -164 -40 13
-92 64 -107 104 -40 104 46 227 159 227 20 0 56 -10 80 -23z"/>
<path d="M2030 2010 l0 -240 40 0 40 0 0 100 0 100 115 0 115 0 0 -100 0 -100
40 0 40 0 0 240 0 240 -40 0 -40 0 0 -100 0 -100 -115 0 -115 0 0 100 0 100
-40 0 -40 0 0 -240z"/>
<path d="M3660 2010 l0 -240 120 0 120 0 0 35 0 34 -82 3 -83 3 -3 203 -2 202
-35 0 -35 0 0 -240z"/>
<path d="M1957 1673 c-16 -15 -6 -44 19 -53 30 -12 27 -35 -5 -34 -11 0 -21
-3 -21 -8 0 -14 47 -9 60 7 15 18 6 33 -27 46 -30 11 -26 31 8 40 l24 7 -26 1
c-14 1 -29 -2 -32 -6z"/>
<path d="M2140 1674 c0 -5 7 -19 15 -30 8 -10 15 -31 15 -46 0 -33 20 -38 20
-5 1 12 7 33 15 47 21 36 18 49 -4 20 l-19 -24 -21 24 c-11 14 -20 20 -21 14z"/>
<path d="M2357 1673 c-15 -14 -6 -40 18 -51 14 -6 25 -19 25 -28 0 -12 -7 -15
-25 -12 -14 3 -25 1 -25 -3 0 -5 14 -9 30 -9 46 0 50 27 9 61 -29 23 -31 29
-17 34 9 4 22 4 28 0 5 -3 10 -1 10 4 0 12 -43 15 -53 4z"/>
<path d="M2555 1671 c15 -6 22 -20 26 -57 l6 -49 1 52 c2 40 6 53 20 56 9 3
-3 5 -28 5 -31 0 -39 -2 -25 -7z"/>
<path d="M2750 1625 l0 -55 38 1 c30 2 32 3 10 6 -32 5 -39 39 -10 46 16 4 16
5 0 6 -27 2 -23 39 5 44 16 3 13 5 -10 6 l-33 1 0 -55z"/>
<path d="M2961 1624 c2 -54 2 -55 8 -19 5 36 7 38 18 20 9 -16 13 -17 27 -6
14 12 16 10 16 -18 0 -17 5 -31 10 -31 6 0 10 26 10 58 l-1 57 -23 -28 -23
-29 -22 27 -21 28 1 -59z"/>
</g>
</svg>
